<svg version="1.1" viewBox="0.0 0.0 277.8608923884514 278.48293963254594" fill="none" stroke="none" stroke-linecap="square" stroke-miterlimit="10" xmlns:xlink="http://www.w3.org/1999/xlink" xmlns="http://www.w3.org/2000/svg"><clipPath id="p.0"><path d="m0 0l277.8609 0l0 278.48294l-277.8609 0l0 -278.48294z" clip-rule="nonzero"/></clipPath><g clip-path="url(#p.0)"><path fill="#000000" fill-opacity="0.0" d="m0 0l277.8609 0l0 278.48294l-277.8609 0z" fill-rule="evenodd"/><path fill="#654ab5" d="m58.543343 139.24147l80.59843 0l0 80.59842l-80.59843 0z" fill-rule="evenodd"/><path fill="#8e68ff" d="m98.63517 118.91601l80.59843 0l0 60.000008l-80.59843 0z" fill-rule="evenodd"/><path fill="#8e68ff" d="m98.63517 99.562706l80.59843 0l0 39.685036l-80.59843 0z" fill-rule="evenodd"/><path fill="#8e68ff" d="m139.1339 58.650917l80.59842 0l0 80.59843l-80.59842 0z" fill-rule="evenodd"/><path fill="#654ab5" d="m18.044619 152.6748l0 0c0 -7.4190216 6.014311 -13.433334 13.43334 -13.433334l53.731743 0l0 0c3.5627441 0 6.9795685 1.4152985 9.49881 3.9345398c2.5192413 2.519226 3.9345322 5.9360504 3.9345322 9.498795l0 53.73175c0 7.4190216 -6.0143127 13.433334 -13.433342 13.433334l-53.731743 0c-7.419029 0 -13.43334 -6.0143127 -13.43334 -13.433334z" fill-rule="evenodd"/><path fill="#8e68ff" d="m98.63517 152.6748l0 0c0 -7.4190216 6.0143127 -13.433334 13.433342 -13.433334l53.73175 0l0 0c3.5627441 0 6.979553 1.4152985 9.498795 3.9345398c2.5192413 2.519226 3.9345398 5.9360504 3.9345398 9.498795l0 53.73175c0 7.4190216 -6.0143127 13.433334 -13.433334 13.433334l-53.73175 0c-7.419029 0 -13.433342 -6.0143127 -13.433342 -13.433334z" fill-rule="evenodd"/><path fill="#8e68ff" d="m98.63517 72.08426l0 0c0 -7.419029 6.0143127 -13.433342 13.433342 -13.433342l53.73175 0l0 0c3.5627441 0 6.979553 1.4152946 9.498795 3.934536c2.5192413 2.5192375 3.9345398 5.936062 3.9345398 9.498806l0 53.731743c0 7.419029 -6.0143127 13.433342 -13.433334 13.433342l-53.73175 0c-7.419029 0 -13.433342 -6.0143127 -13.433342 -13.433342z" fill-rule="evenodd"/><path fill="#a268ff" d="m179.22572 72.08426l0 0c0 -7.419029 6.0143127 -13.433342 13.433334 -13.433342l53.73175 0l0 0c3.5627441 0 6.9795685 1.4152946 9.49881 3.934536c2.519226 2.5192375 3.9345398 5.936062 3.9345398 9.498806l0 53.731743c0 7.419029 -6.014328 13.433342 -13.43335 13.433342l-53.73175 0c-7.4190216 0 -13.433334 -6.0143127 -13.433334 -13.433342z" fill-rule="evenodd"/><path fill="#8e68ff" d="m98.63517 178.92023l0 0c0 -1.8310547E-4 1.5258789E-4 -3.3569336E-4 3.3569336E-4 -3.3569336E-4l40.50361 3.3569336E-4c7.6293945E-5 0 1.6784668E-4 4.5776367E-5 2.2888184E-4 1.0681152E-4c6.1035156E-5 6.1035156E-5 1.0681152E-4 1.5258789E-4 1.0681152E-4 2.2888184E-4l-3.3569336E-4 40.913055c0 1.8310547E-4 -1.5258789E-4 3.3569336E-4 -3.5095215E-4 3.3569336E-4l-40.503593 -3.3569336E-4l0 0c-1.8310547E-4 0 -3.3569336E-4 -1.5258789E-4 -3.3569336E-4 -3.3569336E-4z" fill-rule="evenodd"/><path fill="#a268ff" d="m179.22572 58.650917l0 0c0 -1.8310547E-4 1.5258789E-4 -3.3569336E-4 3.3569336E-4 -3.3569336E-4l40.5036 3.3569336E-4c9.1552734E-5 0 1.6784668E-4 3.8146973E-5 2.4414062E-4 9.918213E-5c6.1035156E-5 6.484985E-5 9.1552734E-5 1.487732E-4 9.1552734E-5 2.4032593E-4l-3.3569336E-4 80.59808c0 1.8310547E-4 -1.5258789E-4 3.3569336E-4 -3.3569336E-4 3.3569336E-4l-40.5036 -3.3569336E-4l0 0c-1.8310547E-4 0 -3.3569336E-4 -1.5258789E-4 -3.3569336E-4 -3.3569336E-4z" fill-rule="evenodd"/></g></svg>