<svg version="1.1" viewBox="0.0 0.0 114.83464566929133 115.03674540682415" fill="none" stroke="none" stroke-linecap="square" stroke-miterlimit="10" xmlns:xlink="http://www.w3.org/1999/xlink" xmlns="http://www.w3.org/2000/svg"><clipPath id="p.0"><path d="m0 0l114.83465 0l0 115.03674l-114.83465 0l0 -115.03674z" clip-rule="nonzero"/></clipPath><g clip-path="url(#p.0)"><path fill="#000000" fill-opacity="0.0" d="m0 0l114.83465 0l0 115.03674l-114.83465 0z" fill-rule="evenodd"/><path fill="#ffffff" d="m0.72440946 19.723475l0 0c0 -10.437085 8.46093 -18.898016 18.898016 -18.898016l75.5898 0l0 0c5.0120697 0 9.818848 1.9910352 13.362915 5.5351005c3.5440674 3.544065 5.535103 8.350849 5.535103 13.362915l0 75.5898c0 10.437088 -8.46093 18.898018 -18.898018 18.898018l-75.5898 0c-10.437086 0 -18.898016 -8.46093 -18.898016 -18.898018z" fill-rule="evenodd"/><path fill="#434341" d="m34.52855 22.292778c-0.677063 0 -1.2339973 0.21841049 -1.6708107 0.65522766c-0.43681335 0.43681908 -0.65522003 1.0265236 -0.65522003 1.7691174l0 4.0132713c0 0.6770706 0.21840668 1.2340164 0.65522003 1.6708336c0.43681335 0.43681908 0.9937477 0.65522766 1.6708107 0.65522766l35.725853 0l-37.445805 51.222458c-0.19656754 0.27301025 -0.49687576 0.70983124 -0.9009285 1.3104553c-0.40405083 0.6006241 -0.6060772 1.4032822 -0.6060772 2.4079666l0 4.340889c0 0.6661453 0.20202637 1.2340088 0.6060772 1.7035904c0.40405273 0.4695816 0.97190857 0.7043686 1.7035713 0.7043686l47.50342 0c0.7425842 0 1.332283 -0.21840668 1.7690964 -0.65522766c0.43681335 -0.43681335 0.65522003 -0.9882965 0.65522003 -1.6544495l0 -4.0296555c0 -0.74259186 -0.21840668 -1.3322983 -0.65522003 -1.7691116c-0.43681335 -0.43682098 -1.0265121 -0.65522766 -1.7690964 -0.65522766l-37.03629 0l37.13457 -51.419033c0.3385315 -0.4695816 0.6388397 -0.9719238 0.9009323 -1.5070248c0.27300262 -0.53510475 0.40950775 -1.2067127 0.40950775 -2.0148277l0 -4.324505c0 -0.74259377 -0.21840668 -1.3322983 -0.65522003 -1.7691174c-0.43681335 -0.43681717 -1.0210495 -0.65522766 -1.7527084 -0.65522766z" fill-rule="evenodd"/></g></svg>